<svg width="340" height="160" xmlns="http://www.w3.org/2000/svg" class="el-tooltip" preserveAspectRatio="xMidYMid meet">

 <g>
  <title>background</title>
  <rect fill="#ffffff" id="canvas_background" height="162" width="342" y="-1" x="-1"/>
 </g>
 <g>
  <title>Layer 1</title>
  <g stroke="null" id="svg_4" fill="#004f9d">
   <g stroke="null" id="svg_5">
    <rect stroke="null" id="svg_6" height="67.019018" width="67.019018" y="51.466688" x="21.234982" fill-opacity="0" fill="#004f9d"/>
    <g stroke="null" transform="matrix(1.45693516570203,0,0,1.45693516570203,-137.08937416754537,-61.8596327225863) " id="svg_1">
     <svg stroke="null" id="svg_7" height="46" width="46" y="77.784052" x="108.669459">
      <g stroke="null" id="svg_2">
       <svg stroke="null" id="svg_8" viewBox="0 0 1531.7 1201.56">
        <g stroke="null" id="svg_9">
         <g stroke="null" id="svg_10">
          <path stroke="null" id="svg_11" d="m1531.7,989.5l-22.79,-12.4l-340.75,-591.15l22.8,12.4l340.74,591.15z" fill="#024c6d"/>
          <path stroke="null" id="svg_12" d="m778.14,1095.4l-22.8,-12.39l188.14,-376.84l22.79,12.4l-188.13,376.83z" fill="#007580"/>
          <path stroke="null" id="svg_13" d="m1190.96,398.35l-22.8,-12.4l-56.56,-98.14l22.79,12.39l56.57,98.15z" fill="#024c6d"/>
          <path stroke="null" id="svg_14" d="m1190.96,398.35l-22.8,-12.4l-34.73,-60.26l22.79,12.4l34.74,60.26z" fill="#0f3445"/>
          <path stroke="null" id="svg_15" d="m966.27,718.57l-22.79,-12.4l189.95,-380.48l22.79,12.4l-189.95,380.48z" fill="#007580"/>
          <path stroke="null" id="svg_16" d="m966.27,718.57l-22.79,-12.4l168.12,-418.36l22.79,12.39l-168.12,418.37z" fill="#113b4e"/>
          <path stroke="null" id="svg_17" d="m1156.22,338.09l34.74,60.26l340.74,591.15l-753.56,105.9l188.13,-376.83l189.95,-380.48z" fill="#00afbf"/>
          <path stroke="null" id="svg_18" d="m1134.39,300.2l56.57,98.15l-34.74,-60.26l-189.95,380.48l168.12,-418.37z" fill="#1a5b78"/>
          <path stroke="null" id="svg_19" d="m966.28,718.56l-22.8,-12.4l-187.72,-325.68l22.79,12.4l187.73,325.68z" fill="#024c6d"/>
          <path stroke="null" id="svg_20" d="m756.66,436.74l-22.8,-12.4l21.9,-43.86l22.79,12.4l-21.89,43.86z" fill="#00356a"/>
          <path stroke="null" id="svg_21" d="m778.55,392.88l-22.79,-12.4l-188.64,-327.27l22.79,12.4l188.64,327.27z" fill="#024c6d"/>
          <path stroke="null" id="svg_22" d="m968.5,12.4l563.2,977.1l-340.74,-591.15l-56.57,-98.15l-168.11,418.36l-187.73,-325.68l-188.64,-327.27l378.59,-53.21z" fill="#0385bd"/>
          <path stroke="null" id="svg_23" d="m756.66,436.74l-22.8,-12.4l-166.74,-371.13l22.79,12.4l166.75,371.13z" fill="#0e243b"/>
          <path stroke="null" id="svg_24" d="m589.91,65.61l188.64,327.27l-21.89,43.86l-166.75,-371.13z" fill="#183f66"/>
          <path stroke="null" id="svg_25" d="m22.79,1201.56l-22.79,-12.4l567.12,-1135.95l22.79,12.4l-567.12,1135.95z" fill="#00356a"/>
          <path stroke="null" id="svg_26" d="m589.91,65.61l166.75,371.13l21.89,-43.86l-377.16,755.47l-378.6,53.21l567.12,-1135.95z" fill="#004f9d"/>
          <path stroke="null" id="svg_27" d="m589.91,65.61l-22.79,-12.4l378.59,-53.21l22.79,12.4l-378.59,53.21z" fill="#036b99"/>
         </g>
        </g>
       </svg>
      </g>
     </svg>
    </g>
    <!---->
   </g>
   <g stroke="null" id="svg_28">
    <g stroke="null" id="svg_29">
     <g stroke="null" id="svg_30">
      <path stroke="null" id="svg_31" d="m137.985567,66.712902l-18.707048,0l0,0q-1.223826,0 -2.127125,0.9033l0,0l0,0q-0.859592,0.859592 -0.859592,2.112556l0,0l0,0q0,1.223826 0.859592,2.127125l0,0l0,0q0.9033,0.859592 2.127125,0.859592l0,0l15.691192,0l0,9.032998l0,0q0,0.947008 -0.699329,1.646337l0,0l0,0q-0.68476,0.68476 -1.631767,0.68476l0,0l-21.373239,0l0,0q-0.947008,0 -1.646337,-0.68476l0,0l0,0q-0.68476,-0.699329 -0.68476,-1.646337l0,0l0,-12.019715l0,0q0,-1.252964 -0.859592,-2.112556l0,0l0,0q-0.9033,-0.9033 -2.127125,-0.9033l0,0l0,0q-1.252964,0 -2.141695,0.9033l0,0l0,0q-0.874161,0.859592 -0.874161,2.112556l0,0l0,12.019715l0,0q0,3.438367 2.447651,5.886018l0,0l0,0q2.447651,2.447651 5.886018,2.447651l0,0l21.373239,0l0,0q3.423798,0 5.886018,-2.447651l0,0l0,0q2.447651,-2.447651 2.447651,-5.886018l0,0l0,-12.019715l0,0q0,-1.252964 -0.874161,-2.112556l0,0l0,0q-0.88873,-0.9033 -2.112556,-0.9033l0,0m-5.346952,-17.352098l-21.373239,0l0,0q-3.438367,0 -5.886018,2.447651l0,0l0,0q-2.447651,2.447651 -2.447651,5.915157l0,0l0,0q0,1.223826 0.874161,2.127125l0,0l0,0q0.88873,0.859592 2.141695,0.859592l0,0l0,0q1.223826,0 2.127125,-0.859592l0,0l0,0q0.859592,-0.9033 0.859592,-2.127125l0,0l0,0q0,-0.990716 0.68476,-1.675475l0,0l0,0q0.699329,-0.68476 1.646337,-0.68476l0,0l21.373239,0l0,0q0.947008,0 1.631767,0.68476l0,0l0,0q0.699329,0.68476 0.699329,1.675475l0,0l0,1.311242l0,0q0,1.252964 0.88873,2.127125l0,0l0,0q0.859592,0.88873 2.127125,0.88873l0,0l0,0q1.223826,0 2.112556,-0.88873l0,0l0,0q0.874161,-0.874161 0.874161,-2.127125l0,0l0,-1.311242l0,0q0,-3.467506 -2.447651,-5.915157l0,0l0,0q-2.46222,-2.447651 -5.886018,-2.447651l0,0zm48.151707,34.718765l-32.023435,0l0,0q-1.252964,0 -2.156264,0.859592l0,0l0,0q-0.859592,0.9033 -0.859592,2.127125l0,0l0,0q0,1.252964 0.859592,2.156264l0,0l0,0q0.9033,0.859592 2.156264,0.859592l0,0l32.023435,0l0,0q1.223826,0 2.127125,-0.859592l0,0l0,0q0.859592,-0.9033 0.859592,-2.156264l0,0l0,0q0,-1.223826 -0.859592,-2.127125l0,0l0,0q-0.9033,-0.859592 -2.127125,-0.859592l0,0m-32.023435,-28.716192l32.023435,0l0,0q1.223826,0 2.127125,-0.859592l0,0l0,0q0.859592,-0.874161 0.859592,-2.127125l0,0l0,0q0,-1.252964 -0.859592,-2.127125l0,0l0,0q-0.9033,-0.88873 -2.127125,-0.88873l0,0l-32.023435,0l0,0q-1.252964,0 -2.156264,0.88873l0,0l0,0q-0.859592,0.874161 -0.859592,2.127125l0,0l0,0q0,1.252964 0.859592,2.127125l0,0l0,0q0.9033,0.859592 2.156264,0.859592l0,0m32.023435,11.349525l-32.023435,0l0,0q-1.252964,0 -2.156264,0.9033l0,0l0,0q-0.859592,0.859592 -0.859592,2.112556l0,0l0,0q0,1.223826 0.859592,2.127125l0,0l0,0q0.9033,0.859592 2.156264,0.859592l0,0l32.023435,0l0,0q1.223826,0 2.127125,-0.859592l0,0l0,0q0.859592,-0.9033 0.859592,-2.127125l0,0l0,0q0,-1.252964 -0.859592,-2.112556l0,0l0,0q-0.9033,-0.9033 -2.127125,-0.9033l0,0zm42.819325,-17.352098l0,0q-1.252964,0 -2.112556,0.88873l0,0l0,0q-0.9033,0.874161 -0.9033,2.127125l0,0l0,26.895023l-6.774749,-7.532355l0,0q-0.845022,-0.932439 -2.068848,-1.019855l0,0l0,0q-1.252964,-0.058277 -2.185403,0.772176l0,0l0,0q-0.917869,0.845022 -0.976147,2.068848l0,0l0,0q-0.058277,1.252964 0.772176,2.185403l0,0l12.005146,13.345526l0,0q0.9033,0.990716 2.24368,0.990716l0,0l0,0q0.539066,0 1.078132,-0.203971l0,0l0,0q1.908585,-0.728468 1.908585,-2.811885l0,0l0,-34.689626l0,0q0,-1.252964 -0.859592,-2.127125l0,0l0,0q-0.9033,-0.88873 -2.127125,-0.88873l0,0m-17.803748,14.336242l-12.019715,-13.316387l0,0q-1.369519,-1.558921 -3.278104,-0.815884l0,0l0,0q-1.937724,0.743037 -1.937724,2.811885l0,0l0,34.689626l0,0q0,1.252964 0.859592,2.156264l0,0l0,0q0.9033,0.859592 2.156264,0.859592l0,0l0,0q1.223826,0 2.112556,-0.859592l0,0l0,0q0.874161,-0.9033 0.874161,-2.156264l0,0l0,-26.865884l6.774749,7.532355l0,0q0.845022,0.932439 2.068848,0.990716l0,0l0,0q1.252964,0.058277 2.185403,-0.786745l0,0l0,0q0.917869,-0.801314 0.976147,-2.054279l0,0l0,0q0.058277,-1.252964 -0.772176,-2.185403l0,0zm60.623072,3.015856l-18.707048,0l0,0q-1.223826,0 -2.112556,0.9033l0,0l0,0q-0.874161,0.859592 -0.874161,2.112556l0,0l0,0q0,1.223826 0.874161,2.127125l0,0l0,0q0.88873,0.859592 2.112556,0.859592l0,0l15.691192,0l0,9.032998l0,0q0,0.947008 -0.68476,1.646337l0,0l0,0q-0.699329,0.68476 -1.646337,0.68476l0,0l-21.35867,0l0,0q-0.961577,0 -1.646337,-0.68476l0,0l0,0q-0.68476,-0.699329 -0.68476,-1.646337l0,0l0,-12.019715l0,0q0,-1.252964 -0.874161,-2.112556l0,0l0,0q-0.88873,-0.9033 -2.112556,-0.9033l0,0l0,0q-1.267534,0 -2.156264,0.9033l0,0l0,0q-0.874161,0.859592 -0.874161,2.112556l0,0l0,12.019715l0,0q0,3.438367 2.46222,5.886018l0,0l0,0q2.447651,2.447651 5.886018,2.447651l0,0l21.35867,0l0,0q3.438367,0 5.886018,-2.447651l0,0l0,0q2.447651,-2.447651 2.447651,-5.886018l0,0l0,-12.019715l0,0q0,-1.252964 -0.859592,-2.112556l0,0l0,0q-0.9033,-0.9033 -2.127125,-0.9033l0,0m-5.346952,-17.352098l-21.35867,0l0,0q-3.438367,0 -5.886018,2.447651l0,0l0,0q-2.46222,2.447651 -2.46222,5.915157l0,0l0,0q0,1.223826 0.874161,2.127125l0,0l0,0q0.88873,0.859592 2.156264,0.859592l0,0l0,0q1.223826,0 2.112556,-0.859592l0,0l0,0q0.874161,-0.9033 0.874161,-2.127125l0,0l0,0q0,-0.990716 0.68476,-1.675475l0,0l0,0q0.68476,-0.68476 1.646337,-0.68476l0,0l21.35867,0l0,0q0.947008,0 1.646337,0.68476l0,0l0,0q0.68476,0.68476 0.68476,1.675475l0,0l0,1.311242l0,0q0,1.252964 0.88873,2.127125l0,0l0,0q0.874161,0.88873 2.127125,0.88873l0,0l0,0q1.223826,0 2.127125,-0.88873l0,0l0,0q0.859592,-0.874161 0.859592,-2.127125l0,0l0,-1.311242l0,0q0,-3.467506 -2.447651,-5.915157l0,0l0,0q-2.447651,-2.447651 -5.886018,-2.447651l0,0z"/>
     </g>
     <g stroke="null" id="svg_32">
      <path stroke="null" id="svg_33" d="m306.480125,54.052136l0,0q-0.655621,0 -0.655621,0.655621l0,0l0,12.005146l0,0q0,1.952293 -1.384088,3.321812l0,0l0,0q-1.369519,1.369519 -3.278104,1.369519l0,0l-21.373239,0l0,0q-1.937724,0 -3.278104,-1.369519l0,0l0,0q-1.384088,-1.369519 -1.384088,-3.321812l0,0l0,-12.005146l0,0q0,-0.655621 -0.68476,-0.655621l0,0l0,0q-0.655621,0 -0.655621,0.655621l0,0l0,12.005146l0,0q0,2.491359 1.762892,4.239681l0,0l0,0q1.762892,1.762892 4.239681,1.762892l0,0l10.009145,0l0,16.711046l0,0q0,0.655621 0.655621,0.655621l0,0l0,0q0.699329,0 0.699329,-0.655621l0,0l0,-16.711046l10.009145,0l0,0q2.47679,0 4.239681,-1.762892l0,0l0,0q1.762892,-1.748322 1.762892,-4.239681l0,0l0,-12.005146l0,0q0,-0.655621 -0.68476,-0.655621l0,0zm6.119128,36.030007l0,0q-0.655621,0 -0.655621,-0.655621l0,0l0,-34.718765l0,0q0,-0.655621 0.655621,-0.655621l0,0l0,0q0.68476,0 0.68476,0.655621l0,0l0,34.718765l0,0q0,0.655621 -0.68476,0.655621l0,0z"/>
     </g>
    </g>
    <g stroke="null" id="svg_34" fill="#666">
     <g stroke="null" id="svg_35">
      <path stroke="null" id="svg_36" d="m98.452546,110.50101c0,0.947008 0.305956,1.733753 0.917869,2.345666c0.611913,0.611913 1.35495,0.917869 2.229111,0.917869c0.845022,0 1.558921,-0.305956 2.170833,-0.917869c0.611913,-0.611913 0.917869,-1.398658 0.917869,-2.345666c0,-1.005285 -0.305956,-1.821169 -0.917869,-2.433082c-0.611913,-0.611913 -1.325811,-0.917869 -2.170833,-0.917869c-0.874161,0 -1.617198,0.305956 -2.229111,0.917869c-0.611913,0.611913 -0.917869,1.427796 -0.917869,2.433082z"/>
     </g>
     <g stroke="null" id="svg_37">
      <path stroke="null" id="svg_38" d="m311.529314,110.50101c0,0.947008 0.305956,1.733753 0.917869,2.345666c0.611913,0.611913 1.35495,0.917869 2.229111,0.917869c0.845022,0 1.558921,-0.305956 2.170833,-0.917869c0.611913,-0.611913 0.917869,-1.398658 0.917869,-2.345666c0,-1.005285 -0.305956,-1.821169 -0.917869,-2.433082c-0.611913,-0.611913 -1.325811,-0.917869 -2.170833,-0.917869c-0.874161,0 -1.617198,0.305956 -2.229111,0.917869c-0.611913,0.611913 -0.917869,1.427796 -0.917869,2.433082z"/>
     </g>
     <!---->
     <!---->
     <g stroke="null" id="svg_39">
      <path stroke="null" id="svg_40" d="m109.059034,102.176082l0,13.374665l3.423798,0c1.005285,0 1.894016,-0.145694 2.680761,-0.466219c0.772176,-0.305956 1.427796,-0.743037 1.952293,-1.325811c0.524497,-0.568205 0.932439,-1.282103 1.209256,-2.112556c0.262248,-0.830453 0.407942,-1.79203 0.407942,-2.841024c0,-2.141695 -0.539066,-3.773462 -1.617198,-4.924441c-1.078132,-1.136409 -2.651622,-1.704614 -4.705901,-1.704614l-3.350951,0zm3.219827,11.990576l-1.529782,0l0,-10.606488l1.529782,0c1.57349,0 2.739038,0.45165 3.525783,1.34038c0.772176,0.9033 1.165548,2.199972 1.165548,3.904586c0,1.690045 -0.393372,3.015856 -1.165548,3.948294c-0.786745,0.947008 -1.952293,1.413227 -3.525783,1.413227zm8.421085,-3.554922c0,0.815884 0.131124,1.544351 0.378803,2.185403c0.23311,0.641051 0.568205,1.180117 1.005285,1.617198c0.422511,0.45165 0.932439,0.786745 1.500643,1.019855c0.582774,0.247679 1.209256,0.364234 1.879446,0.364234c0.67019,0 1.282103,-0.101985 1.8066,-0.305956c0.539066,-0.203971 1.019855,-0.45165 1.456935,-0.713898l-0.597343,-1.107271c-0.364234,0.23311 -0.757606,0.422511 -1.150979,0.568205c-0.407942,0.131124 -0.845022,0.203971 -1.311242,0.203971c-0.961577,0 -1.733753,-0.305956 -2.316527,-0.932439c-0.597343,-0.626482 -0.932439,-1.471505 -0.990716,-2.549637l6.687332,0c0.043708,-0.247679 0.058277,-0.553635 0.058277,-0.917869c0,-0.713898 -0.087416,-1.34038 -0.262248,-1.923154c-0.174832,-0.568205 -0.437081,-1.048993 -0.772176,-1.456935c-0.320526,-0.407942 -0.743037,-0.728468 -1.238395,-0.947008c-0.495358,-0.21854 -1.048993,-0.320526 -1.675475,-0.320526c-0.582774,0 -1.12184,0.116555 -1.660906,0.349664c-0.524497,0.247679 -1.005285,0.582774 -1.413227,1.034424c-0.422511,0.45165 -0.743037,0.990716 -1.005285,1.646337c-0.247679,0.641051 -0.378803,1.369519 -0.378803,2.185403zm6.935011,-0.757606l-5.303244,0c0.058277,-0.495358 0.174832,-0.947008 0.349664,-1.325811c0.160263,-0.393372 0.378803,-0.713898 0.641051,-0.990716c0.247679,-0.262248 0.539066,-0.466219 0.859592,-0.611913c0.320526,-0.131124 0.655621,-0.203971 1.005285,-0.203971c0.786745,0 1.384088,0.262248 1.8066,0.801314c0.437081,0.539066 0.641051,1.311242 0.641051,2.331096zm3.656907,3.452936l-0.830453,1.12184c0.466219,0.393372 1.034424,0.713898 1.660906,0.976147c0.641051,0.262248 1.311242,0.393372 2.02514,0.393372c0.582774,0 1.107271,-0.087416 1.558921,-0.23311c0.45165,-0.160263 0.845022,-0.378803 1.136409,-0.641051c0.305956,-0.276818 0.539066,-0.597343 0.699329,-0.947008c0.160263,-0.349664 0.23311,-0.728468 0.23311,-1.136409c0,-0.466219 -0.087416,-0.859592 -0.276818,-1.180117c-0.174832,-0.335095 -0.407942,-0.611913 -0.699329,-0.830453c-0.291387,-0.23311 -0.611913,-0.407942 -0.976147,-0.568205c-0.349664,-0.145694 -0.713898,-0.291387 -1.063563,-0.422511c-0.291387,-0.101985 -0.568205,-0.21854 -0.830453,-0.320526c-0.262248,-0.101985 -0.495358,-0.21854 -0.699329,-0.349664c-0.203971,-0.116555 -0.364234,-0.276818 -0.495358,-0.437081c-0.116555,-0.174832 -0.174832,-0.378803 -0.174832,-0.611913c0,-0.378803 0.145694,-0.713898 0.437081,-0.990716c0.291387,-0.291387 0.743037,-0.437081 1.369519,-0.437081c0.437081,0 0.845022,0.087416 1.209256,0.247679c0.364234,0.160263 0.713898,0.378803 1.063563,0.641051l0.786745,-1.063563c-0.378803,-0.320526 -0.830453,-0.582774 -1.35495,-0.801314c-0.524497,-0.21854 -1.092701,-0.320526 -1.719183,-0.320526c-0.524497,0 -1.005285,0.072847 -1.427796,0.203971c-0.422511,0.145694 -0.772176,0.349664 -1.078132,0.597343c-0.291387,0.247679 -0.509927,0.553635 -0.67019,0.9033c-0.145694,0.335095 -0.23311,0.713898 -0.23311,1.107271c0,0.422511 0.087416,0.786745 0.262248,1.078132c0.189402,0.305956 0.407942,0.568205 0.68476,0.786745c0.276818,0.23311 0.597343,0.422511 0.947008,0.568205c0.364234,0.160263 0.713898,0.305956 1.063563,0.422511l0.815884,0.320526c0.276818,0.116555 0.509927,0.247679 0.728468,0.378803c0.203971,0.145694 0.378803,0.320526 0.524497,0.509927c0.131124,0.189402 0.203971,0.407942 0.203971,0.67019c0,0.437081 -0.174832,0.801314 -0.495358,1.092701c-0.320526,0.305956 -0.815884,0.45165 -1.471505,0.45165c-0.597343,0 -1.12184,-0.101985 -1.57349,-0.320526c-0.466219,-0.21854 -0.9033,-0.509927 -1.34038,-0.859592zm9.67405,-9.703188c0.320526,0 0.597343,-0.101985 0.815884,-0.305956c0.23311,-0.203971 0.335095,-0.466219 0.335095,-0.786745c0,-0.320526 -0.101985,-0.582774 -0.335095,-0.772176c-0.21854,-0.203971 -0.495358,-0.305956 -0.815884,-0.305956c-0.335095,0 -0.611913,0.101985 -0.830453,0.305956c-0.23311,0.189402 -0.335095,0.45165 -0.335095,0.772176c0,0.320526 0.101985,0.582774 0.335095,0.786745c0.21854,0.203971 0.495358,0.305956 0.830453,0.305956zm-0.859592,2.039709l0,9.907159l1.675475,0l0,-9.907159l-1.675475,0zm5.725755,11.582635c0,-0.291387 0.087416,-0.568205 0.247679,-0.859592c0.160263,-0.291387 0.422511,-0.553635 0.772176,-0.815884c0.21854,0.072847 0.437081,0.116555 0.67019,0.131124c0.21854,0.014569 0.422511,0.029139 0.611913,0.029139l1.719183,0c0.655621,0 1.150979,0.087416 1.486074,0.262248c0.349664,0.189402 0.509927,0.495358 0.509927,0.961577c0,0.262248 -0.072847,0.509927 -0.21854,0.757606c-0.145694,0.247679 -0.364234,0.466219 -0.641051,0.641051c-0.262248,0.189402 -0.597343,0.335095 -0.990716,0.45165c-0.378803,0.116555 -0.815884,0.174832 -1.282103,0.174832c-0.9033,0 -1.602629,-0.160263 -2.112556,-0.466219c-0.509927,-0.320526 -0.772176,-0.743037 -0.772176,-1.267534zm-1.471505,0.21854c0,0.437081 0.101985,0.815884 0.305956,1.150979c0.189402,0.320526 0.466219,0.597343 0.830453,0.830453c0.364234,0.23311 0.786745,0.407942 1.296672,0.524497c0.509927,0.116555 1.063563,0.174832 1.675475,0.174832c0.772176,0 1.471505,-0.101985 2.083417,-0.276818c0.626482,-0.189402 1.150979,-0.437081 1.588059,-0.743037c0.437081,-0.320526 0.772176,-0.68476 0.990716,-1.092701c0.23311,-0.422511 0.349664,-0.859592 0.349664,-1.325811c0,-0.830453 -0.291387,-1.427796 -0.859592,-1.8066c-0.582774,-0.364234 -1.442366,-0.553635 -2.607914,-0.553635l-1.908585,0c-0.68476,0 -1.150979,-0.101985 -1.398658,-0.305956c-0.23311,-0.203971 -0.364234,-0.466219 -0.364234,-0.772176c0,-0.276818 0.058277,-0.509927 0.189402,-0.68476c0.116555,-0.189402 0.262248,-0.349664 0.45165,-0.495358c0.21854,0.101985 0.466219,0.189402 0.728468,0.247679c0.262248,0.058277 0.509927,0.087416 0.757606,0.087416c0.495358,0 0.976147,-0.072847 1.413227,-0.23311c0.437081,-0.174832 0.830453,-0.393372 1.150979,-0.68476c0.335095,-0.291387 0.582774,-0.655621 0.772176,-1.092701c0.189402,-0.422511 0.291387,-0.9033 0.291387,-1.427796c0,-0.422511 -0.072847,-0.815884 -0.23311,-1.165548c-0.160263,-0.349664 -0.349664,-0.641051 -0.582774,-0.874161l2.039709,0l0,-1.282103l-3.452936,0c-0.189402,-0.072847 -0.393372,-0.131124 -0.641051,-0.174832c-0.23311,-0.058277 -0.495358,-0.072847 -0.757606,-0.072847c-0.509927,0 -0.990716,0.072847 -1.442366,0.247679c-0.45165,0.160263 -0.845022,0.393372 -1.194687,0.699329c-0.335095,0.305956 -0.611913,0.67019 -0.801314,1.107271c-0.203971,0.437081 -0.291387,0.932439 -0.291387,1.471505c0,0.597343 0.131124,1.12184 0.393372,1.588059c0.262248,0.45165 0.553635,0.815884 0.88873,1.078132l0,0.087416c-0.262248,0.174832 -0.509927,0.422511 -0.743037,0.728468c-0.21854,0.320526 -0.335095,0.68476 -0.335095,1.107271c0,0.393372 0.072847,0.728468 0.247679,0.990716c0.174832,0.262248 0.378803,0.466219 0.626482,0.626482l0,0.072847c-0.45165,0.320526 -0.801314,0.655621 -1.063563,1.048993c-0.262248,0.378803 -0.393372,0.772176 -0.393372,1.194687zm4.108557,-6.162836c-0.291387,0 -0.553635,-0.043708 -0.815884,-0.160263c-0.247679,-0.101985 -0.466219,-0.262248 -0.67019,-0.466219c-0.189402,-0.203971 -0.349664,-0.45165 -0.45165,-0.743037c-0.116555,-0.291387 -0.160263,-0.626482 -0.160263,-0.990716c0,-0.728468 0.203971,-1.296672 0.611913,-1.704614c0.407942,-0.393372 0.9033,-0.597343 1.486074,-0.597343c0.582774,0 1.078132,0.203971 1.486074,0.597343c0.407942,0.407942 0.611913,0.976147 0.611913,1.704614c0,0.364234 -0.058277,0.699329 -0.160263,0.990716c-0.116555,0.291387 -0.262248,0.539066 -0.466219,0.743037c-0.189402,0.203971 -0.422511,0.364234 -0.67019,0.466219c-0.247679,0.116555 -0.524497,0.160263 -0.801314,0.160263zm6.935011,-5.638339l0,9.907159l1.675475,0l0,-7.18269c0.495358,-0.495358 0.947008,-0.874161 1.34038,-1.136409c0.393372,-0.262248 0.845022,-0.393372 1.369519,-0.393372c0.655621,0 1.12184,0.203971 1.427796,0.626482c0.291387,0.407942 0.45165,1.092701 0.45165,2.02514l0,6.06085l1.660906,0l0,-6.279391c0,-1.282103 -0.23311,-2.24368 -0.713898,-2.899301c-0.480789,-0.655621 -1.252964,-0.976147 -2.301958,-0.976147c-0.68476,0 -1.296672,0.160263 -1.821169,0.480789c-0.524497,0.320526 -1.019855,0.713898 -1.500643,1.194687l-0.058277,0l-0.145694,-1.427796l-1.384088,0zm15.472651,6.993289l-1.019855,1.180117c0.597343,0.611913 1.282103,1.092701 2.083417,1.442366c0.801314,0.364234 1.675475,0.539066 2.607914,0.539066c0.713898,0 1.34038,-0.101985 1.908585,-0.305956c0.553635,-0.189402 1.034424,-0.466219 1.427796,-0.801314c0.393372,-0.349664 0.68476,-0.757606 0.9033,-1.223826c0.203971,-0.466219 0.320526,-0.961577 0.320526,-1.486074c0,-0.495358 -0.072847,-0.917869 -0.21854,-1.296672c-0.145694,-0.378803 -0.335095,-0.699329 -0.582774,-0.976147c-0.247679,-0.276818 -0.539066,-0.524497 -0.874161,-0.728468c-0.349664,-0.21854 -0.699329,-0.407942 -1.078132,-0.568205l-1.908585,-0.815884c-0.262248,-0.101985 -0.524497,-0.23311 -0.786745,-0.364234c-0.262248,-0.116555 -0.495358,-0.276818 -0.713898,-0.437081c-0.21854,-0.174832 -0.393372,-0.378803 -0.524497,-0.597343c-0.131124,-0.21854 -0.189402,-0.495358 -0.189402,-0.830453c0,-0.611913 0.21854,-1.092701 0.68476,-1.427796c0.45165,-0.349664 1.048993,-0.524497 1.8066,-0.524497c0.626482,0 1.180117,0.116555 1.675475,0.335095c0.495358,0.21854 0.947008,0.539066 1.35495,0.932439l0.917869,-1.107271c-0.466219,-0.480789 -1.048993,-0.88873 -1.733753,-1.194687c-0.67019,-0.305956 -1.413227,-0.45165 -2.214541,-0.45165c-0.611913,0 -1.180117,0.087416 -1.690045,0.262248c-0.509927,0.174832 -0.947008,0.422511 -1.325811,0.743037c-0.378803,0.320526 -0.67019,0.699329 -0.874161,1.136409c-0.21854,0.437081 -0.320526,0.9033 -0.320526,1.398658c0,0.495358 0.087416,0.932439 0.247679,1.296672c0.160263,0.378803 0.378803,0.699329 0.626482,0.976147c0.262248,0.262248 0.553635,0.495358 0.88873,0.68476c0.320526,0.189402 0.641051,0.364234 0.947008,0.495358l1.923154,0.830453c0.305956,0.160263 0.611913,0.291387 0.874161,0.437081c0.276818,0.131124 0.509927,0.291387 0.699329,0.45165c0.203971,0.174832 0.364234,0.378803 0.480789,0.611913c0.116555,0.247679 0.174832,0.524497 0.174832,0.874161c0,0.655621 -0.247679,1.180117 -0.743037,1.57349c-0.480789,0.407942 -1.180117,0.611913 -2.054279,0.611913c-0.699329,0 -1.369519,-0.160263 -2.010571,-0.466219c-0.641051,-0.305956 -1.209256,-0.713898 -1.690045,-1.209256zm9.965437,-2.02514c0,0.815884 0.116555,1.544351 0.364234,2.199972c0.262248,0.641051 0.597343,1.180117 1.019855,1.631767c0.422511,0.437081 0.9033,0.772176 1.456935,1.005285c0.553635,0.23311 1.136409,0.349664 1.748322,0.349664c0.611913,0 1.180117,-0.116555 1.733753,-0.349664c0.553635,-0.23311 1.034424,-0.568205 1.456935,-1.005285c0.422511,-0.45165 0.757606,-0.990716 1.019855,-1.631767c0.247679,-0.655621 0.378803,-1.384088 0.378803,-2.199972c0,-0.830453 -0.131124,-1.558921 -0.378803,-2.214541c-0.262248,-0.641051 -0.597343,-1.194687 -1.019855,-1.631767c-0.422511,-0.45165 -0.9033,-0.801314 -1.456935,-1.019855c-0.553635,-0.23311 -1.12184,-0.349664 -1.733753,-0.349664c-0.611913,0 -1.194687,0.116555 -1.748322,0.349664c-0.553635,0.21854 -1.034424,0.568205 -1.456935,1.019855c-0.422511,0.437081 -0.757606,0.990716 -1.019855,1.631767c-0.247679,0.655621 -0.364234,1.384088 -0.364234,2.214541zm1.733753,0c0,-0.568205 0.058277,-1.092701 0.203971,-1.558921c0.131124,-0.466219 0.320526,-0.874161 0.568205,-1.209256c0.262248,-0.349664 0.568205,-0.611913 0.917869,-0.786745c0.349664,-0.189402 0.743037,-0.276818 1.165548,-0.276818c0.422511,0 0.801314,0.087416 1.150979,0.276818c0.364234,0.174832 0.655621,0.437081 0.917869,0.786745c0.247679,0.335095 0.437081,0.743037 0.582774,1.209256c0.131124,0.466219 0.203971,0.990716 0.203971,1.558921c0,0.568205 -0.072847,1.092701 -0.203971,1.558921c-0.145694,0.45165 -0.335095,0.859592 -0.582774,1.180117c-0.262248,0.335095 -0.553635,0.597343 -0.917869,0.786745c-0.349664,0.174832 -0.728468,0.276818 -1.150979,0.276818c-0.422511,0 -0.815884,-0.101985 -1.165548,-0.276818c-0.349664,-0.189402 -0.655621,-0.45165 -0.917869,-0.786745c-0.247679,-0.320526 -0.437081,-0.728468 -0.568205,-1.180117c-0.145694,-0.466219 -0.203971,-0.990716 -0.203971,-1.558921zm14.511074,-8.217114l0.378803,-1.282103c-0.23311,-0.101985 -0.495358,-0.174832 -0.772176,-0.23311c-0.276818,-0.072847 -0.568205,-0.101985 -0.88873,-0.101985c-0.990716,0 -1.719183,0.291387 -2.185403,0.88873c-0.466219,0.582774 -0.713898,1.384088 -0.713898,2.403943l0,1.57349l-1.34038,0.101985l0,1.252964l1.34038,0l0,8.552209l1.675475,0l0,-8.552209l2.097987,0l0,-1.35495l-2.097987,0l0,-1.57349c0,-1.282103 0.466219,-1.923154 1.384088,-1.923154c0.393372,0 0.757606,0.087416 1.12184,0.247679zm1.777461,4.603915l0,5.492646c0,0.495358 0.043708,0.932439 0.145694,1.34038c0.101985,0.407942 0.247679,0.757606 0.480789,1.048993c0.21854,0.276818 0.509927,0.509927 0.874161,0.67019c0.364234,0.160263 0.801314,0.247679 1.34038,0.247679c0.305956,0 0.626482,-0.043708 0.947008,-0.116555c0.320526,-0.072847 0.611913,-0.160263 0.88873,-0.247679l-0.335095,-1.267534c-0.160263,0.058277 -0.335095,0.131124 -0.539066,0.174832c-0.203971,0.058277 -0.393372,0.087416 -0.582774,0.087416c-0.568205,0 -0.961577,-0.160263 -1.180117,-0.495358c-0.23311,-0.335095 -0.349664,-0.815884 -0.349664,-1.427796l0,-5.507215l2.680761,0l0,-1.35495l-2.680761,0l0,-2.782746l-1.398658,0l-0.203971,2.782746l-1.558921,0.101985l0,1.252964l1.471505,0zm5.434368,-1.35495l2.753607,9.907159l1.952293,0l1.384088,-5.303244c0.145694,-0.480789 0.262248,-0.947008 0.364234,-1.413227c0.116555,-0.480789 0.21854,-0.961577 0.335095,-1.456935l0.072847,0c0.131124,0.495358 0.247679,0.976147 0.349664,1.442366c0.101985,0.466219 0.203971,0.932439 0.335095,1.413227l1.427796,5.317813l2.039709,0l2.651622,-9.907159l-1.602629,0l-1.442366,5.725755c-0.101985,0.480789 -0.203971,0.932439 -0.305956,1.384088c-0.101985,0.45165 -0.203971,0.9033 -0.305956,1.369519l-0.087416,0c-0.101985,-0.466219 -0.21854,-0.917869 -0.335095,-1.369519c-0.116555,-0.45165 -0.23311,-0.9033 -0.349664,-1.384088l-1.558921,-5.725755l-1.631767,0l-1.529782,5.725755c-0.116555,0.466219 -0.23311,0.917869 -0.335095,1.369519c-0.116555,0.466219 -0.21854,0.917869 -0.335095,1.384088l-0.072847,0c-0.101985,-0.466219 -0.189402,-0.917869 -0.291387,-1.369519c-0.101985,-0.45165 -0.203971,-0.9033 -0.305956,-1.384088l-1.471505,-5.725755l-1.704614,0zm15.122987,7.342953c0,0.88873 0.276818,1.588059 0.830453,2.068848c0.553635,0.495358 1.252964,0.743037 2.097987,0.743037c0.611913,0 1.194687,-0.145694 1.733753,-0.422511c0.553635,-0.276818 1.063563,-0.611913 1.544351,-1.005285l0.043708,0l0.145694,1.180117l1.384088,0l0,-6.07542c0,-1.238395 -0.276818,-2.229111 -0.815884,-2.972148c-0.553635,-0.743037 -1.427796,-1.107271 -2.637053,-1.107271c-0.801314,0 -1.529782,0.131124 -2.199972,0.407942c-0.67019,0.291387 -1.223826,0.568205 -1.690045,0.874161l0.67019,1.165548c0.393372,-0.276818 0.845022,-0.524497 1.34038,-0.743037c0.495358,-0.21854 1.034424,-0.320526 1.617198,-0.320526c0.407942,0 0.743037,0.072847 1.005285,0.21854c0.247679,0.131124 0.466219,0.320526 0.611913,0.553635c0.160263,0.23311 0.276818,0.495358 0.335095,0.801314c0.058277,0.291387 0.087416,0.597343 0.087416,0.917869c-2.127125,0.23311 -3.671477,0.626482 -4.633054,1.209256c-0.976147,0.582774 -1.471505,1.413227 -1.471505,2.505928zm1.660906,-0.131124c0,-0.305956 0.072847,-0.597343 0.21854,-0.859592c0.145694,-0.276818 0.407942,-0.509927 0.743037,-0.713898c0.349664,-0.203971 0.815884,-0.378803 1.384088,-0.524497c0.568205,-0.145694 1.267534,-0.276818 2.097987,-0.393372l0,2.753607c-0.480789,0.437081 -0.932439,0.772176 -1.35495,0.990716c-0.422511,0.23311 -0.88873,0.335095 -1.35495,0.335095c-0.495358,0 -0.9033,-0.116555 -1.238395,-0.364234c-0.335095,-0.247679 -0.495358,-0.655621 -0.495358,-1.223826zm9.280677,-7.211829l0,9.907159l1.675475,0l0,-6.366807c0.335095,-0.845022 0.728468,-1.427796 1.194687,-1.777461c0.45165,-0.335095 0.88873,-0.509927 1.311242,-0.509927c0.203971,0 0.364234,0.014569 0.509927,0.043708c0.131124,0.029139 0.276818,0.072847 0.45165,0.131124l0.320526,-1.471505c-0.305956,-0.145694 -0.67019,-0.203971 -1.063563,-0.203971c-0.568205,0 -1.092701,0.174832 -1.57349,0.553635c-0.480789,0.364234 -0.9033,0.859592 -1.238395,1.486074l-0.058277,0l-0.145694,-1.79203l-1.384088,0zm6.133697,4.968149c0,0.815884 0.131124,1.544351 0.364234,2.185403c0.247679,0.641051 0.582774,1.180117 1.019855,1.617198c0.422511,0.45165 0.932439,0.786745 1.500643,1.019855c0.582774,0.247679 1.209256,0.364234 1.864877,0.364234c0.68476,0 1.296672,-0.101985 1.821169,-0.305956c0.524497,-0.203971 1.019855,-0.45165 1.442366,-0.713898l-0.582774,-1.107271c-0.364234,0.23311 -0.757606,0.422511 -1.150979,0.568205c-0.407942,0.131124 -0.845022,0.203971 -1.325811,0.203971c-0.947008,0 -1.719183,-0.305956 -2.301958,-0.932439c-0.597343,-0.626482 -0.932439,-1.471505 -0.990716,-2.549637l6.687332,0c0.043708,-0.247679 0.058277,-0.553635 0.058277,-0.917869c0,-0.713898 -0.087416,-1.34038 -0.262248,-1.923154c-0.174832,-0.568205 -0.437081,-1.048993 -0.772176,-1.456935c-0.335095,-0.407942 -0.743037,-0.728468 -1.238395,-0.947008c-0.495358,-0.21854 -1.063563,-0.320526 -1.690045,-0.320526c-0.568205,0 -1.12184,0.116555 -1.646337,0.349664c-0.524497,0.247679 -1.005285,0.582774 -1.413227,1.034424c-0.422511,0.45165 -0.757606,0.990716 -1.005285,1.646337c-0.247679,0.641051 -0.378803,1.369519 -0.378803,2.185403zm6.935011,-0.757606l-5.303244,0c0.058277,-0.495358 0.174832,-0.947008 0.335095,-1.325811c0.174832,-0.393372 0.393372,-0.713898 0.641051,-0.990716c0.262248,-0.262248 0.553635,-0.466219 0.874161,-0.611913c0.320526,-0.131124 0.655621,-0.203971 1.005285,-0.203971c0.772176,0 1.384088,0.262248 1.8066,0.801314c0.437081,0.539066 0.641051,1.311242 0.641051,2.331096zm12.500504,-7.459508l0.378803,-1.282103c-0.23311,-0.101985 -0.495358,-0.174832 -0.772176,-0.23311c-0.276818,-0.072847 -0.568205,-0.101985 -0.88873,-0.101985c-0.990716,0 -1.719183,0.291387 -2.185403,0.88873c-0.466219,0.582774 -0.713898,1.384088 -0.713898,2.403943l0,1.57349l-1.34038,0.101985l0,1.252964l1.34038,0l0,8.552209l1.675475,0l0,-8.552209l2.097987,0l0,-1.35495l-2.097987,0l0,-1.57349c0,-1.282103 0.466219,-1.923154 1.384088,-1.923154c0.393372,0 0.757606,0.087416 1.12184,0.247679zm0.553635,8.217114c0,0.815884 0.131124,1.544351 0.378803,2.199972c0.247679,0.641051 0.582774,1.180117 1.005285,1.631767c0.422511,0.437081 0.917869,0.772176 1.471505,1.005285c0.539066,0.23311 1.12184,0.349664 1.733753,0.349664c0.611913,0 1.194687,-0.116555 1.748322,-0.349664c0.553635,-0.23311 1.034424,-0.568205 1.456935,-1.005285c0.422511,-0.45165 0.757606,-0.990716 1.005285,-1.631767c0.262248,-0.655621 0.378803,-1.384088 0.378803,-2.199972c0,-0.830453 -0.116555,-1.558921 -0.378803,-2.214541c-0.247679,-0.641051 -0.582774,-1.194687 -1.005285,-1.631767c-0.422511,-0.45165 -0.9033,-0.801314 -1.456935,-1.019855c-0.553635,-0.23311 -1.136409,-0.349664 -1.748322,-0.349664c-0.611913,0 -1.194687,0.116555 -1.733753,0.349664c-0.553635,0.21854 -1.048993,0.568205 -1.471505,1.019855c-0.422511,0.437081 -0.757606,0.990716 -1.005285,1.631767c-0.247679,0.655621 -0.378803,1.384088 -0.378803,2.214541zm1.733753,0c0,-0.568205 0.072847,-1.092701 0.203971,-1.558921c0.145694,-0.466219 0.335095,-0.874161 0.582774,-1.209256c0.247679,-0.349664 0.553635,-0.611913 0.9033,-0.786745c0.364234,-0.189402 0.743037,-0.276818 1.165548,-0.276818c0.422511,0 0.815884,0.087416 1.165548,0.276818c0.349664,0.174832 0.655621,0.437081 0.9033,0.786745c0.262248,0.335095 0.45165,0.743037 0.582774,1.209256c0.145694,0.466219 0.203971,0.990716 0.203971,1.558921c0,0.568205 -0.058277,1.092701 -0.203971,1.558921c-0.131124,0.45165 -0.320526,0.859592 -0.582774,1.180117c-0.247679,0.335095 -0.553635,0.597343 -0.9033,0.786745c-0.349664,0.174832 -0.743037,0.276818 -1.165548,0.276818c-0.422511,0 -0.801314,-0.101985 -1.165548,-0.276818c-0.349664,-0.189402 -0.655621,-0.45165 -0.9033,-0.786745c-0.247679,-0.320526 -0.437081,-0.728468 -0.582774,-1.180117c-0.131124,-0.466219 -0.203971,-0.990716 -0.203971,-1.558921zm10.052853,-4.968149l0,9.907159l1.675475,0l0,-6.366807c0.349664,-0.845022 0.743037,-1.427796 1.194687,-1.777461c0.45165,-0.335095 0.88873,-0.509927 1.311242,-0.509927c0.203971,0 0.378803,0.014569 0.509927,0.043708c0.145694,0.029139 0.291387,0.072847 0.45165,0.131124l0.335095,-1.471505c-0.320526,-0.145694 -0.67019,-0.203971 -1.063563,-0.203971c-0.568205,0 -1.107271,0.174832 -1.588059,0.553635c-0.480789,0.364234 -0.88873,0.859592 -1.223826,1.486074l-0.072847,0l-0.131124,-1.79203l-1.398658,0zm13.534928,4.72047l0,5.186689l1.704614,0l0,-5.186689l4.021141,-8.187976l-1.777461,0l-1.704614,3.773462c-0.203971,0.480789 -0.422511,0.961577 -0.655621,1.442366c-0.23311,0.480789 -0.466219,0.961577 -0.699329,1.471505l-0.072847,0c-0.23311,-0.509927 -0.45165,-0.990716 -0.655621,-1.471505c-0.203971,-0.480789 -0.422511,-0.961577 -0.641051,-1.442366l-1.733753,-3.773462l-1.8066,0l4.021141,8.187976zm5.813171,0.247679c0,0.815884 0.116555,1.544351 0.378803,2.199972c0.247679,0.641051 0.582774,1.180117 1.005285,1.631767c0.422511,0.437081 0.9033,0.772176 1.456935,1.005285c0.553635,0.23311 1.136409,0.349664 1.748322,0.349664c0.611913,0 1.194687,-0.116555 1.733753,-0.349664c0.553635,-0.23311 1.034424,-0.568205 1.456935,-1.005285c0.422511,-0.45165 0.757606,-0.990716 1.019855,-1.631767c0.247679,-0.655621 0.378803,-1.384088 0.378803,-2.199972c0,-0.830453 -0.131124,-1.558921 -0.378803,-2.214541c-0.262248,-0.641051 -0.597343,-1.194687 -1.019855,-1.631767c-0.422511,-0.45165 -0.9033,-0.801314 -1.456935,-1.019855c-0.539066,-0.23311 -1.12184,-0.349664 -1.733753,-0.349664c-0.611913,0 -1.194687,0.116555 -1.748322,0.349664c-0.553635,0.21854 -1.034424,0.568205 -1.456935,1.019855c-0.422511,0.437081 -0.757606,0.990716 -1.005285,1.631767c-0.262248,0.655621 -0.378803,1.384088 -0.378803,2.214541zm1.733753,0c0,-0.568205 0.058277,-1.092701 0.203971,-1.558921c0.131124,-0.466219 0.320526,-0.874161 0.582774,-1.209256c0.247679,-0.349664 0.553635,-0.611913 0.9033,-0.786745c0.349664,-0.189402 0.743037,-0.276818 1.165548,-0.276818c0.422511,0 0.801314,0.087416 1.150979,0.276818c0.364234,0.174832 0.655621,0.437081 0.917869,0.786745c0.247679,0.335095 0.437081,0.743037 0.582774,1.209256c0.131124,0.466219 0.203971,0.990716 0.203971,1.558921c0,0.568205 -0.072847,1.092701 -0.203971,1.558921c-0.145694,0.45165 -0.335095,0.859592 -0.582774,1.180117c-0.262248,0.335095 -0.553635,0.597343 -0.917869,0.786745c-0.349664,0.174832 -0.728468,0.276818 -1.150979,0.276818c-0.422511,0 -0.815884,-0.101985 -1.165548,-0.276818c-0.349664,-0.189402 -0.655621,-0.45165 -0.9033,-0.786745c-0.262248,-0.320526 -0.45165,-0.728468 -0.582774,-1.180117c-0.145694,-0.466219 -0.203971,-0.990716 -0.203971,-1.558921zm9.907159,-4.968149l0,6.279391c0,1.282103 0.247679,2.24368 0.728468,2.899301c0.480789,0.641051 1.252964,0.976147 2.316527,0.976147c0.68476,0 1.296672,-0.160263 1.8066,-0.495358c0.509927,-0.320526 0.990716,-0.757606 1.456935,-1.296672l0.058277,0l0.145694,1.544351l1.384088,0l0,-9.907159l-1.675475,0l0,7.036997c-0.480789,0.582774 -0.917869,1.005285 -1.311242,1.267534c-0.393372,0.262248 -0.845022,0.393372 -1.35495,0.393372c-0.655621,0 -1.136409,-0.203971 -1.427796,-0.611913c-0.291387,-0.422511 -0.437081,-1.092701 -0.437081,-2.039709l0,-6.046281l-1.690045,0z"/>
     </g>
    </g>
   </g>
  </g>
 </g>
</svg>